Coordinates
version=1
nRows=16
nColumns=63
inDegrees=yes

Units are S.I. units (second, meters, Newtons, ...)
If the header above contains a line with 'inDegrees', this indicates whether rotational values are in degrees (yes) or radians (no).

endheader
time	pelvis_tilt	pelvis_list	pelvis_rotation	pelvis_tx	pelvis_ty	pelvis_tz	hip_flexion_r	hip_adduction_r	hip_rotation_r	knee_angle_r	knee_angle_r_beta	ankle_angle_r	subtalar_angle_r	mtp_angle_r	hip_flexion_l	hip_adduction_l	hip_rotation_l	knee_angle_l	knee_angle_l_beta	ankle_angle_l	subtalar_angle_l	mtp_angle_l	L5_S1_Flex_Ext	L5_S1_Lat_Bending	L5_S1_axial_rotation	L4_L5_Flex_Ext	L4_L5_Lat_Bending	L4_L5_axial_rotation	L3_L4_Flex_Ext	L3_L4_Lat_Bending	L3_L4_axial_rotation	L2_L3_Flex_Ext	L2_L3_Lat_Bending	L2_L3_axial_rotation	L1_L2_Flex_Ext	L1_L2_Lat_Bending	L1_L2_axial_rotation	L1_T12_Flex_Ext	L1_T12_Lat_Bending	L1_T12_axial_rotation	Abs_r3	Abs_r2	Abs_r1	Abs_t1	Abs_t2	neck_flexion	neck_bending	neck_rotation	arm_flex_r	arm_add_r	arm_rot_r	elbow_flex_r	pro_sup_r	wrist_flex_r	wrist_dev_r	arm_flex_l	arm_add_l	arm_rot_l	elbow_flex_l	pro_sup_l	wrist_flex_l	wrist_dev_l
2.339623	-0.796354	-6.060688	97.045349	0.064465	0.901568	0.533412	12.005415	-2.836420	-14.926753	12.582403	0.219604	35.476965	14.122656	0.000000	11.055708	-0.292861	-5.303736	12.322238	0.215064	30.860286	7.406310	0.000000	0.369202	0.005219	0.285863	0.685645	0.006941	0.303730	0.606562	0.012689	0.303730	0.421961	0.012689	0.250130	0.342841	0.010642	0.232264	0.210962	0.008084	0.214397	2.637171	0.059038	1.589885	0.000000	0.000000	28.224016	-10.938808	-23.469870	14.150265	-4.910880	48.832712	42.763139	21.885511	-13.786184	29.490342	23.201415	-3.035892	59.020434	36.677816	86.830040	13.330478	21.053372
2.358491	-0.828419	-6.012161	97.013543	0.064471	0.901431	0.533533	11.878650	-2.871801	-15.041572	12.471906	0.217676	35.511460	14.432307	0.000000	11.003527	-0.261128	-5.265452	12.324636	0.215105	30.877900	7.305764	0.000000	0.361871	-0.001393	0.286801	0.672031	-0.001852	0.304726	0.594518	-0.003386	0.304726	0.413583	-0.003386	0.250951	0.336034	-0.002840	0.233026	0.206773	-0.002157	0.215101	2.584811	-0.015753	1.595102	0.000000	0.000000	28.216842	-11.047429	-23.519510	14.151579	-4.781617	48.584277	42.644806	22.372613	-13.551734	29.608165	22.786953	-3.172008	57.914428	37.101766	86.029757	12.605455	21.278050
2.377358	-0.852275	-5.977814	97.003465	0.064375	0.901263	0.533612	11.784353	-2.921496	-15.238099	12.407534	0.216552	35.581990	14.805358	0.000000	10.972408	-0.230625	-5.228713	12.351163	0.215568	30.892266	7.179893	0.000000	0.356389	-0.007435	0.289109	0.661850	-0.009889	0.307178	0.585512	-0.018079	0.307178	0.407317	-0.018079	0.252970	0.330943	-0.015162	0.234901	0.203641	-0.011518	0.216832	2.545653	-0.084112	1.607937	0.000000	0.000000	28.208845	-11.262745	-23.770951	14.113978	-4.667553	48.255625	42.575581	22.879476	-13.445352	29.740754	22.386063	-3.262343	56.742378	37.471751	85.673097	12.179428	21.505589
2.396226	-0.869661	-5.955663	97.030601	0.064174	0.901085	0.533626	11.713810	-2.974117	-15.414619	12.375165	0.215987	35.661526	15.085092	0.000000	10.951645	-0.188649	-5.092902	12.382155	0.216109	30.881713	6.926904	0.000000	0.353077	-0.013063	0.285944	0.655699	-0.017373	0.303816	0.580070	-0.031761	0.303816	0.403531	-0.031761	0.250201	0.327867	-0.026637	0.232330	0.201748	-0.020234	0.214458	2.521991	-0.147768	1.590335	0.000000	0.000000	28.200706	-11.547618	-24.171257	14.053726	-4.546649	47.860309	42.486968	23.543556	-13.247253	29.894943	21.987445	-3.334517	55.540490	37.829153	85.446329	11.877201	21.832203
2.415094	-0.874424	-5.941055	97.110259	0.063837	0.900914	0.533581	11.661376	-3.029878	-15.622769	12.378178	0.216040	35.750069	15.309951	0.000000	10.940114	-0.144289	-4.892753	12.418837	0.216750	30.863690	6.628110	0.000000	0.351864	-0.017053	0.273850	0.653447	-0.022680	0.290965	0.578078	-0.041462	0.290965	0.402146	-0.041462	0.239618	0.326741	-0.034774	0.222503	0.201055	-0.026415	0.205387	2.513331	-0.192905	1.523070	0.000000	0.000000	28.193344	-11.857330	-24.637575	13.984478	-4.435035	47.458182	42.394965	24.224441	-13.062860	30.056209	21.600451	-3.379510	54.359408	38.146778	85.184090	11.692839	22.236246
2.433962	-0.860709	-5.936246	97.244430	0.063365	0.900758	0.533495	11.629993	-3.076351	-15.808783	12.408647	0.216572	35.829124	15.406094	0.000000	10.942872	-0.098057	-4.578187	12.456786	0.217412	30.833848	6.241933	0.000000	0.352838	-0.018800	0.253460	0.655255	-0.025004	0.269301	0.579677	-0.045711	0.269301	0.403259	-0.045711	0.221778	0.327645	-0.038337	0.205936	0.201612	-0.029122	0.190095	2.520286	-0.212672	1.409669	0.000000	0.000000	28.186672	-12.167621	-25.143054	13.911883	-4.342111	47.052227	42.300740	24.995034	-12.859373	30.264057	21.239802	-3.397079	53.303147	38.413074	84.621685	11.530476	22.727881
2.452830	-0.842011	-5.947742	97.411517	0.062804	0.900625	0.533342	11.624683	-3.128705	-16.008441	12.464282	0.217543	35.911347	15.456932	0.000000	10.959871	-0.049039	-4.262447	12.490097	0.217993	30.809596	5.898022	0.000000	0.356476	-0.020325	0.229817	0.662012	-0.027032	0.244181	0.585655	-0.049418	0.244181	0.407417	-0.049418	0.201090	0.331024	-0.041447	0.186727	0.203691	-0.031483	0.172363	2.546276	-0.229920	1.278175	0.000000	0.000000	28.181294	-12.455534	-25.661596	13.793810	-4.253875	46.578245	42.242401	25.583277	-12.831202	30.463097	20.868113	-3.391773	52.274869	38.646413	84.163858	11.460514	23.200478
2.471698	-0.810299	-5.972078	97.595493	0.062189	0.900519	0.533130	11.646360	-3.170604	-16.185222	12.537865	0.218827	35.995646	15.434524	0.000000	10.989986	-0.014419	-4.003617	12.519883	0.218513	30.815616	5.672843	0.000000	0.362582	-0.020404	0.204192	0.673351	-0.027137	0.216954	0.595686	-0.049609	0.216954	0.414395	-0.049609	0.178668	0.336694	-0.041607	0.165906	0.207179	-0.031605	0.153144	2.589887	-0.230809	1.135653	0.000000	0.000000	28.177729	-12.692821	-26.116287	13.651879	-4.184710	46.106461	42.211830	26.022530	-12.906459	30.642990	20.509257	-3.372102	51.392734	38.837366	83.776344	11.480193	23.612473
2.490566	-0.769953	-6.003264	97.812577	0.061494	0.900460	0.532828	11.678325	-3.215664	-16.419094	12.618594	0.220236	36.096541	15.420473	0.000000	11.023460	0.021536	-3.708245	12.539314	0.218852	30.831493	5.470798	0.000000	0.370748	-0.019476	0.172964	0.688516	-0.025903	0.183774	0.609102	-0.047354	0.183774	0.423728	-0.047354	0.151344	0.344277	-0.039716	0.140533	0.211845	-0.030169	0.129723	2.648217	-0.220318	0.961975	0.000000	0.000000	28.175945	-12.872605	-26.484093	13.488566	-4.133477	45.652444	42.190740	26.346353	-13.001528	30.804488	20.165865	-3.343661	50.707030	38.990842	83.588189	11.590771	23.943112
2.509434	-0.720190	-6.030820	98.049798	0.060732	0.900459	0.532441	11.707210	-3.250707	-16.641701	12.690646	0.221494	36.201372	15.339406	0.000000	11.043807	0.049179	-3.436275	12.539843	0.218862	30.861479	5.363840	0.000000	0.379758	-0.016996	0.138704	0.705248	-0.022605	0.147373	0.623904	-0.041324	0.147373	0.434025	-0.041324	0.121366	0.352643	-0.034659	0.112697	0.216994	-0.026327	0.104028	2.712573	-0.192264	0.771430	0.000000	0.000000	28.175988	-12.991604	-26.739320	13.292940	-4.113971	45.228825	42.222435	26.395382	-13.249075	30.893662	19.869737	-3.315008	50.333166	39.079822	83.427683	11.732355	24.145540
2.528302	-0.661032	-6.047662	98.297898	0.059927	0.900518	0.531986	11.727766	-3.273780	-16.853442	12.757771	0.222665	36.307671	15.199095	0.000000	11.045909	0.066236	-3.188211	12.525730	0.218615	30.903315	5.340758	0.000000	0.388691	-0.012938	0.100276	0.721838	-0.017207	0.106543	0.638580	-0.031456	0.106543	0.444235	-0.031456	0.087741	0.360938	-0.026382	0.081474	0.222098	-0.020040	0.075207	2.776380	-0.146352	0.557704	0.000000	0.000000	28.177105	-13.061247	-26.886644	13.117385	-4.134761	44.982050	42.269854	26.183723	-13.533251	30.906962	19.626539	-3.288605	50.244829	39.106278	83.356299	11.903638	24.238832
2.547170	-0.592261	-6.052478	98.555084	0.059081	0.900634	0.531469	11.735768	-3.282648	-17.036570	12.818811	0.223730	36.407705	14.992821	0.000000	11.030084	0.078581	-2.902651	12.499460	0.218157	30.944545	5.311752	0.000000	0.398092	-0.006876	0.052944	0.739297	-0.009145	0.056253	0.654025	-0.016719	0.056253	0.454979	-0.016719	0.046326	0.369668	-0.014022	0.043017	0.227470	-0.010651	0.039708	2.843531	-0.077786	0.294458	0.000000	0.000000	28.179623	-13.045771	-26.851503	12.982664	-4.180435	44.930791	42.281819	26.032691	-13.642667	30.865838	19.415371	-3.255504	50.321364	39.065636	83.374780	12.126423	24.260691
2.566038	-0.520740	-6.036006	98.818349	0.058201	0.900814	0.530890	11.713646	-3.288587	-17.260519	12.870643	0.224635	36.502863	14.823550	0.000000	10.981057	0.085253	-2.635226	12.453265	0.217350	31.002968	5.362741	0.000000	0.407068	0.000688	-0.008455	0.755967	0.000914	-0.008983	0.668773	0.001672	-0.008983	0.465238	0.001672	-0.007398	0.378004	0.001402	-0.006870	0.232599	0.001065	-0.006341	2.907648	0.007777	-0.047024	0.000000	0.000000	28.184362	-12.912719	-26.585258	12.909625	-4.236234	45.146288	42.242143	25.867782	-13.586100	30.739162	19.188192	-3.239172	50.416927	38.993633	83.297586	12.283879	24.320084
2.584906	-0.438515	-5.998372	99.068061	0.057308	0.901042	0.530279	11.665549	-3.267303	-17.383806	12.908118	0.225289	36.558882	14.532653	0.000000	10.907270	0.077376	-2.383889	12.401416	0.216446	31.083517	5.451870	0.000000	0.415556	0.010837	-0.081110	0.771729	0.014414	-0.086180	0.682717	0.026350	-0.086180	0.474939	0.026350	-0.070972	0.385885	0.022099	-0.065902	0.237449	0.016787	-0.060833	2.968273	0.122593	-0.451112	0.000000	0.000000	28.189228	-12.689457	-26.116526	12.919587	-4.309227	45.673705	42.144526	25.824504	-13.338543	30.561246	18.927166	-3.213362	50.355343	38.860206	83.273752	12.559840	24.389067
2.603774	-0.359400	-5.931693	99.296367	0.056425	0.901321	0.529634	11.581175	-3.233891	-17.428745	12.939800	0.225842	36.584118	14.172912	0.000000	10.794034	0.064542	-2.156191	12.335951	0.215303	31.176251	5.574818	0.000000	0.422857	0.021940	-0.162878	0.785287	0.029180	-0.173058	0.694711	0.053345	-0.173058	0.483283	0.053345	-0.142518	0.392665	0.044740	-0.132338	0.241620	0.033985	-0.122158	3.020424	0.248190	-0.905878	0.000000	0.000000	28.193412	-12.346051	-25.416249	13.007323	-4.370905	46.430792	41.938264	26.264884	-12.687503	30.346884	18.640214	-3.188995	50.146231	38.681727	83.312201	12.958993	24.460028
2.622642	-0.285056	-5.837094	99.512733	0.055548	0.901642	0.528952	11.459090	-3.194494	-17.429183	12.969693	0.226364	36.582280	13.785579	0.000000	10.641787	0.057371	-1.872113	12.252270	0.213842	31.264655	5.623234	0.000000	0.429106	0.032999	-0.249991	0.796894	0.043889	-0.265616	0.704979	0.080234	-0.265616	0.490426	0.080234	-0.218742	0.398468	0.067291	-0.203118	0.245191	0.051115	-0.187494	3.065064	0.373291	-1.390377	0.000000	0.000000	28.194810	-11.919931	-24.575482	13.134846	-4.410142	47.306316	41.651303	27.151028	-11.766751	30.124780	18.344594	-3.166890	49.860780	38.479710	83.387790	13.389518	24.549969
